<?xml version="1.0" standalone="no"?>
<!DOCTYPE svg PUBLIC "-//W3C//DTD SVG 20010904//EN"
 "http://www.w3.org/TR/2001/REC-SVG-20010904/DTD/svg10.dtd">
<svg version="1.0" xmlns="http://www.w3.org/2000/svg"
 width="800.000000pt" height="482.000000pt" viewBox="0 0 800.000000 482.000000"
 preserveAspectRatio="xMidYMid meet">

<g transform="translate(0.000000,482.000000) scale(0.100000,-0.100000)"
fill="#000000" stroke="none">
<path d="M310 4660 c0 -153 -1 -160 -20 -160 -18 0 -20 7 -20 58 0 140 -32
227 -84 227 l-26 1 0 -493 0 -493 30 0 c23 0 30 -4 30 -20 0 -19 -7 -20 -110
-20 l-110 0 0 -1880 0 -1880 2475 0 c2193 0 2475 2 2475 15 0 9 9 15 23 15
l22 0 -3 500 -2 500 -25 0 c-18 0 -25 5 -25 20 0 18 7 20 70 20 60 0 70 -3 70
-17 0 -11 3 -14 8 -7 14 22 51 35 70 25 62 -33 85 -122 85 -331 -1 -213 -27
-314 -89 -342 -19 -9 -30 -9 -44 0 -18 11 -19 5 -22 -178 l-3 -190 23 0 c13 0
22 -6 22 -15 0 -13 166 -15 1435 -15 l1435 0 0 715 c0 683 -1 715 -18 715 -18
0 -36 -120 -149 -998 -5 -38 -25 -64 -38 -50 -3 3 -94 861 -107 1008 -2 28 -8
36 -25 38 -15 2 -23 10 -23 23 0 17 8 19 90 19 83 0 90 -1 90 -20 0 -13 -7
-20 -20 -20 -14 0 -20 -7 -20 -22 1 -29 58 -566 59 -555 7 62 73 538 76 554 5
20 1 23 -25 23 -23 0 -30 4 -30 20 0 18 7 20 70 20 l70 0 0 1675 0 1675 -2067
0 c-2029 0 -2067 0 -2039 -19 42 -28 63 -66 76 -139 13 -68 9 -180 -10 -245
-6 -21 -24 -52 -39 -69 l-28 -32 28 -23 c49 -41 72 -122 73 -248 0 -127 -13
-181 -55 -230 -39 -44 -79 -55 -201 -55 -91 0 -98 1 -98 20 0 16 7 20 30 20
l30 0 0 495 0 495 -25 0 c-16 0 -25 6 -25 15 0 8 -4 15 -10 15 -5 0 -10 -7
-10 -15 0 -10 -10 -15 -30 -15 l-30 0 0 -495 0 -495 30 0 c23 0 30 -4 30 -20
0 -19 -7 -20 -100 -20 -93 0 -100 1 -100 20 0 13 7 20 20 20 19 0 20 7 20 245
l0 245 -45 0 -45 0 0 -245 c0 -238 1 -245 20 -245 13 0 20 -7 20 -20 0 -19 -7
-20 -100 -20 -93 0 -100 1 -100 20 0 16 7 20 30 20 l30 0 0 495 0 495 -30 0
c-20 0 -30 5 -30 15 0 13 -49 15 -385 15 l-385 0 0 -337 c0 -185 2 -334 3
-332 7 7 107 227 107 233 0 3 -7 6 -15 6 -8 0 -15 9 -15 20 0 18 7 20 65 20
58 0 65 -2 65 -20 0 -15 -7 -20 -28 -20 -25 0 -31 -8 -70 -92 -23 -51 -42
-100 -42 -108 0 -8 27 -98 59 -200 50 -161 60 -185 79 -188 14 -2 22 -10 22
-23 0 -18 -6 -20 -62 -17 l-61 3 -47 163 c-29 99 -50 157 -54 147 -3 -9 -6
-75 -6 -146 0 -122 1 -129 20 -129 13 0 20 -7 20 -20 0 -18 -7 -20 -85 -20
-78 0 -85 2 -85 20 0 13 7 20 20 20 20 0 20 7 20 495 l0 495 -30 0 c-20 0 -30
5 -30 15 0 13 -72 15 -590 15 l-590 0 0 -194 c0 -107 -3 -202 -7 -212 -5 -14
-1 -13 23 5 94 69 154 -96 141 -384 -7 -154 -25 -223 -68 -259 -35 -30 -51
-32 -73 -10 -15 14 -16 -2 -16 -180 0 -189 1 -196 20 -196 11 0 20 -7 20 -15
0 -12 -17 -15 -90 -15 -73 0 -90 3 -90 15 0 9 9 15 25 15 l25 0 0 195 0 194
-29 -17 c-86 -49 -140 82 -140 343 -1 189 27 296 83 323 23 12 31 11 52 -2
l24 -16 0 174 c0 96 3 181 6 190 5 13 -1 16 -25 16 -21 0 -31 5 -31 15 0 13
-43 15 -330 15 l-330 0 0 -160z m162 -248 c30 -25 58 -119 65 -214 l6 -90 -81
4 -82 3 0 -132 c0 -144 8 -183 40 -183 41 0 80 109 80 228 0 57 2 62 21 62 21
0 22 -3 16 -87 -8 -120 -29 -184 -72 -222 -45 -39 -79 -40 -115 -1 -40 42 -51
96 -57 267 -8 230 20 348 90 378 35 15 62 11 89 -13z m290 -12 c48 -52 63
-125 63 -305 0 -188 -16 -258 -70 -312 -37 -37 -53 -40 -94 -18 -34 17 -64 77
-81 160 -16 78 -16 286 0 356 35 147 111 196 182 119z m951 25 c5 -13 10 -13
42 0 86 36 164 -40 165 -159 0 -53 -32 -133 -56 -143 -11 -4 -5 -15 20 -44 63
-69 72 -178 22 -263 -28 -48 -63 -70 -111 -70 -69 0 -114 78 -123 211 -4 69
-2 83 10 83 11 0 17 -21 25 -79 11 -83 36 -148 65 -165 47 -29 91 103 69 205
-15 66 -34 89 -78 89 -26 0 -33 4 -33 19 0 15 8 21 33 23 44 4 67 51 67 136 0
181 -85 168 -112 -16 -7 -56 -15 -82 -25 -82 -10 0 -13 29 -13 135 0 109 3
135 14 135 8 0 16 -7 19 -15z m1191 -15 c20 -20 21 -35 26 -312 4 -221 8 -292
18 -296 9 -3 12 29 12 137 0 134 1 141 20 141 19 0 20 -7 20 -134 0 -74 -3
-142 -6 -151 -9 -22 -61 -47 -84 -40 -11 3 -28 17 -39 31 -15 18 -20 21 -24
10 -3 -8 -20 -22 -38 -31 -44 -23 -74 -8 -102 53 -31 66 -31 206 0 274 24 52
70 83 109 74 l24 -6 0 107 c0 60 -4 114 -9 122 -14 22 -54 0 -74 -40 -18 -37
-15 -49 13 -49 40 0 53 -67 20 -100 -26 -26 -45 -25 -71 1 -18 18 -21 30 -17
85 4 72 24 106 78 136 42 23 94 18 124 -12z m-1434 0 c0 -11 -7 -20 -15 -20
-13 0 -15 -25 -15 -167 0 -93 -3 -179 -7 -193 -3 -14 -3 -23 0 -20 5 5 77 353
77 373 0 4 -7 7 -15 7 -8 0 -15 9 -15 20 0 18 7 20 85 20 78 0 85 -2 85 -20 0
-15 -7 -20 -25 -20 l-25 0 0 -295 0 -295 25 0 c18 0 25 -5 25 -20 0 -18 -7
-20 -85 -20 -78 0 -85 2 -85 20 0 11 7 20 15 20 13 0 15 27 14 188 l0 187 -34
-160 c-39 -182 -42 -215 -20 -215 8 0 15 -9 15 -20 0 -18 -7 -20 -85 -20 -78
0 -85 2 -85 20 0 15 7 20 25 20 l25 0 0 295 0 295 -25 0 c-18 0 -25 5 -25 20
0 18 7 20 85 20 78 0 85 -2 85 -20z m650 0 c0 -11 -7 -20 -15 -20 -13 0 -15
-27 -14 -187 l1 -188 32 155 c18 85 35 170 39 188 5 24 3 32 -8 32 -8 0 -15 9
-15 20 0 18 7 20 85 20 78 0 85 -2 85 -20 0 -15 -7 -20 -25 -20 l-25 0 0 -295
0 -295 25 0 c18 0 25 -5 25 -20 0 -18 -7 -20 -85 -20 -78 0 -85 2 -85 20 0 11
7 20 15 20 13 0 15 28 14 198 l0 197 -39 -185 c-22 -102 -39 -190 -40 -196 0
-7 9 -14 21 -17 12 -3 19 -12 17 -19 -3 -9 -31 -14 -91 -16 -82 -3 -87 -2 -87
18 0 15 7 20 25 20 l25 0 0 295 0 295 -25 0 c-18 0 -25 5 -25 20 0 18 7 20 85
20 78 0 85 -2 85 -20z m1080 -245 l0 -35 -90 0 -90 0 0 35 0 35 90 0 90 0 0
-35z m2649 -702 c13 -159 25 -290 27 -292 5 -5 224 -30 272 -31 30 0 42 -4 42
-15 0 -11 -11 -15 -42 -15 -48 0 -267 -26 -274 -32 -2 -3 -14 -122 -26 -266
-12 -144 -26 -262 -30 -262 -4 0 -8 11 -8 25 0 35 -41 489 -44 492 -5 6 -330
43 -373 43 -45 0 -59 16 -20 24 12 3 90 12 172 21 83 9 166 18 186 21 l35 6
23 271 c12 150 21 278 21 285 0 6 4 12 8 12 4 0 18 -129 31 -287z m-1584 1
c552 -72 972 -356 1050 -709 23 -101 16 -233 -16 -329 -81 -243 -349 -462
-699 -574 -228 -73 -415 -97 -689 -89 -223 6 -360 29 -541 92 -477 167 -758
514 -696 862 60 340 432 619 969 728 221 45 385 49 622 19z m-2472 -626 c3
-24 14 -141 23 -260 l18 -217 35 -5 c20 -3 80 -11 134 -17 53 -6 97 -15 97
-18 0 -4 -60 -14 -132 -22 l-133 -14 -18 -230 c-10 -126 -20 -245 -23 -262 -7
-50 -24 -39 -24 15 0 51 -29 423 -35 458 -4 19 -16 22 -135 34 -71 7 -130 17
-130 21 0 3 46 12 103 18 149 18 156 20 162 44 6 33 35 397 35 451 0 58 16 60
23 4z m487 -105 c0 -32 11 -184 25 -338 14 -154 25 -289 25 -301 0 -19 11 -22
180 -39 99 -10 180 -22 180 -27 0 -4 -6 -8 -12 -8 -22 0 -341 -39 -343 -42 -5
-5 -55 -611 -55 -661 0 -26 -4 -47 -10 -47 -5 0 -10 2 -10 4 0 26 -61 700 -64
703 -3 3 -316 43 -338 43 -5 0 -8 4 -8 8 0 5 78 17 174 27 l174 18 5 51 c3 28
15 175 27 326 12 151 23 290 26 308 8 53 24 36 24 -25z m1916 -1273 c20 -13
35 -17 39 -10 3 5 15 10 26 10 18 0 19 -9 19 -205 0 -193 -1 -205 -19 -205
-16 0 -19 12 -25 98 -8 113 -28 217 -51 261 -23 46 -61 43 -83 -6 -15 -34 -17
-85 -17 -468 0 -410 1 -432 20 -470 13 -26 27 -40 40 -40 38 0 45 38 45 268 0
210 -1 217 -20 217 -13 0 -20 7 -20 20 0 19 7 20 90 20 83 0 90 -1 90 -20 0
-13 -7 -20 -20 -20 -19 0 -20 -7 -20 -250 0 -137 -4 -250 -8 -250 -5 0 -17 9
-27 20 -17 19 -18 19 -50 -15 -37 -40 -65 -44 -113 -15 -77 47 -101 171 -102
523 0 346 22 473 91 532 37 30 71 32 115 5z m3247 -195 c27 -110 59 -245 72
-300 l24 -100 0 283 c1 276 1 282 -19 282 -13 0 -20 7 -20 20 0 18 7 20 65 20
58 0 65 -2 65 -20 0 -15 -7 -20 -25 -20 l-25 0 0 -515 c0 -451 -2 -515 -15
-515 -8 0 -15 3 -15 8 0 4 -43 192 -95 417 l-94 410 0 -397 -1 -398 35 0 c28
0 35 -4 35 -20 0 -19 -7 -20 -90 -20 -83 0 -90 1 -90 20 0 16 7 20 35 20 l35
0 0 495 0 495 -35 0 c-28 0 -35 4 -35 20 0 18 6 20 72 17 l72 -2 49 -200z
m-2025 -8 l-3 -203 38 13 c32 11 42 11 66 -2 55 -28 61 -66 61 -360 0 -258 1
-265 20 -265 13 0 20 -7 20 -20 0 -18 -7 -20 -65 -20 l-65 0 0 299 c0 165 -3
306 -6 315 -8 20 -23 20 -46 -1 -17 -15 -18 -37 -18 -295 0 -271 0 -278 20
-278 13 0 20 -7 20 -20 0 -19 -7 -20 -90 -20 -83 0 -90 1 -90 20 0 15 7 20 25
20 l25 0 0 495 0 495 -30 0 c-20 0 -30 5 -30 15 0 12 15 15 75 15 l76 0 -3
-203z m1030 -137 l-3 -339 58 121 c31 66 57 123 57 124 0 2 -9 4 -20 4 -13 0
-20 7 -20 20 0 18 7 20 70 20 63 0 70 -2 70 -20 0 -15 -7 -20 -28 -20 -25 0
-32 -9 -75 -96 l-48 -95 62 -200 c58 -184 64 -199 86 -199 16 0 23 -6 23 -20
0 -18 -7 -20 -64 -20 l-63 0 -43 153 c-24 83 -47 156 -52 161 -4 6 -8 -54 -8
-132 0 -135 1 -142 20 -142 13 0 20 -7 20 -20 0 -19 -7 -20 -90 -20 -83 0 -90
1 -90 20 0 15 7 20 26 20 l25 0 -2 495 -2 495 -29 0 c-18 0 -28 5 -28 15 0 12
15 15 75 15 l76 0 -3 -340z m-665 129 c17 -24 18 -30 6 -55 -19 -39 -70 -46
-93 -12 -21 30 -20 50 5 77 26 28 56 24 82 -10z m457 11 c38 -38 14 -100 -40
-100 -34 0 -50 17 -50 54 0 58 51 85 90 46z m650 -193 c43 -22 49 -61 49 -354
1 -236 3 -273 16 -273 13 0 15 22 15 140 0 133 1 140 20 140 19 0 20 -7 20
-138 0 -125 -2 -140 -20 -160 -39 -42 -101 -37 -115 9 -7 20 -7 20 -30 -5 -56
-61 -113 -35 -142 63 -20 69 -13 194 14 248 23 47 85 83 114 64 18 -11 19 -6
19 97 0 115 -11 151 -43 139 -18 -7 -57 -64 -57 -84 0 -7 10 -13 23 -13 57 0
60 -95 3 -115 -42 -15 -66 19 -66 95 0 68 27 116 80 142 41 21 66 22 100 5z
m-2346 -22 c29 -31 52 -115 62 -218 l6 -79 -81 4 -81 3 0 -138 c0 -76 5 -147
10 -158 14 -26 46 -24 65 5 20 29 45 146 45 209 0 41 3 47 21 47 21 0 21 -3
15 -77 -10 -114 -32 -181 -71 -220 -55 -55 -116 -36 -150 49 -37 94 -37 422 0
516 33 81 111 109 159 57z m295 6 c56 -56 75 -150 69 -348 -6 -167 -21 -233
-67 -282 -17 -18 -39 -31 -54 -31 -30 0 -73 32 -93 72 -25 47 -44 172 -44 282
0 158 21 247 73 304 27 29 89 30 116 3z m941 -296 l0 -315 25 0 c18 0 25 -5
25 -20 0 -19 -7 -20 -90 -20 -83 0 -90 1 -90 20 0 13 7 20 20 20 20 0 20 7 20
295 l0 295 -25 0 c-18 0 -25 5 -25 20 0 18 7 20 70 20 l70 0 0 -315z m290 309
c0 -6 -105 -517 -115 -561 -5 -21 -2 -23 35 -23 l40 0 0 60 c0 53 2 60 20 60
19 0 20 -7 20 -100 l0 -100 -110 0 c-108 0 -110 1 -110 23 1 12 27 145 59 295
l57 272 -33 0 -33 0 0 -55 c0 -48 -2 -55 -20 -55 -19 0 -20 7 -20 95 l0 95
105 0 c58 0 105 -3 105 -6z m180 -309 c0 -308 0 -315 20 -315 13 0 20 -7 20
-20 0 -18 -7 -20 -85 -20 -78 0 -85 2 -85 20 0 13 7 20 20 20 20 0 20 7 20
295 l0 295 -30 0 c-23 0 -30 4 -30 20 0 18 7 20 75 20 l75 0 0 -315z m970 50
l0 -35 -90 0 -90 0 0 35 0 35 90 0 90 0 0 -35z"/>
<path d="M400 4380 c-6 -12 -14 -68 -17 -125 l-6 -105 36 0 37 0 0 83 c0 122
-25 194 -50 147z"/>
<path d="M679 4383 c-22 -25 -26 -550 -5 -578 21 -28 48 -9 59 41 13 63 4 505
-11 532 -15 26 -25 28 -43 5z"/>
<path d="M2790 4110 c-14 -26 -15 -247 -1 -283 27 -69 51 -1 51 144 0 134 -21
193 -50 139z"/>
<path d="M5780 3130 c0 -28 2 -30 40 -30 38 0 40 2 40 30 0 28 -2 30 -40 30
-38 0 -40 -2 -40 -30z"/>
<path d="M4000 2620 l0 -820 39 0 c21 0 85 5 142 11 541 55 945 293 1079 635
34 86 35 250 1 347 -111 324 -530 577 -1056 637 -49 5 -116 10 -147 10 l-58 0
0 -820z m224 680 c30 -12 82 -39 116 -61 61 -39 170 -135 170 -149 0 -14 -311
-70 -391 -70 l-29 0 0 156 0 157 40 -7 c22 -3 64 -15 94 -26z m351 -50 c114
-39 165 -61 165 -70 0 -4 -29 -20 -65 -35 l-65 -28 -22 29 c-12 16 -45 53 -75
82 -56 55 -64 69 -35 57 9 -4 53 -20 97 -35z m357 -181 c133 -99 241 -251 255
-357 l6 -42 -211 0 -211 0 -6 48 c-10 72 -43 191 -72 255 -14 31 -24 59 -22
61 8 8 174 84 184 85 6 0 40 -22 77 -50z m-324 -136 c28 -61 48 -131 66 -230
l6 -33 -295 0 -295 0 0 124 0 124 73 7 c95 8 280 41 337 59 72 23 74 22 108
-51z m65 -390 c-12 -86 -34 -165 -64 -232 -17 -39 -34 -71 -38 -71 -3 0 -39 9
-80 20 -93 25 -222 47 -323 56 l-78 7 0 123 0 124 288 3 c158 1 290 3 294 5 4
1 4 -15 1 -35z m513 -16 c-34 -142 -116 -252 -270 -367 l-58 -42 -92 43 c-50
23 -93 44 -95 45 -2 2 10 36 27 76 31 76 55 161 66 237 4 24 9 48 12 52 3 5
99 9 214 9 l208 -1 -12 -52z m-917 -322 c118 -18 241 -46 241 -56 0 -15 -128
-123 -190 -159 -59 -35 -181 -80 -216 -80 -11 0 -14 29 -14 155 l0 155 43 0
c23 0 84 -7 136 -15z m425 -115 c25 -10 46 -24 46 -30 0 -5 -1 -10 -3 -10 -2
0 -50 -18 -108 -39 -57 -21 -119 -42 -137 -46 -32 -7 -31 -5 38 65 38 40 70
77 70 82 0 12 33 5 94 -22z"/>
<path d="M3804 3306 c-39 -13 -97 -38 -128 -56 -67 -38 -181 -140 -169 -151
12 -12 202 -48 293 -55 l80 -7 0 147 c0 80 -1 146 -2 146 -2 -1 -35 -11 -74
-24z"/>
<path d="M3415 3246 c-38 -14 -90 -33 -114 -43 l-44 -19 57 -24 c32 -13 61
-19 65 -14 4 5 31 35 61 67 29 31 51 57 49 57 -2 0 -35 -11 -74 -24z"/>
<path d="M3079 3079 c-75 -51 -188 -173 -222 -241 -16 -31 -34 -79 -42 -107
l-13 -51 204 0 204 0 0 28 c0 50 29 161 62 245 l33 82 -85 41 -86 41 -55 -38z"/>
<path d="M3393 2942 c-32 -72 -50 -131 -61 -204 l-9 -58 279 0 278 0 0 120 0
120 -49 0 c-63 0 -279 37 -354 60 l-59 18 -25 -56z"/>
<path d="M2810 2538 c1 -76 106 -239 208 -324 109 -91 105 -90 204 -42 l85 41
-24 53 c-31 68 -60 168 -68 239 l-7 55 -199 0 -199 0 0 -22z"/>
<path d="M3331 2512 c11 -74 28 -131 60 -201 23 -51 32 -62 46 -56 52 20 227
55 328 66 l115 13 0 113 0 113 -279 0 -278 0 8 -48z"/>
<path d="M3755 2199 c-99 -14 -231 -40 -246 -49 -11 -7 -10 -13 6 -31 35 -38
128 -105 190 -136 47 -24 154 -63 172 -63 2 0 3 65 3 145 l0 145 -32 -1 c-18
-1 -60 -5 -93 -10z"/>
<path d="M3312 2086 l-54 -23 54 -23 c29 -12 84 -33 121 -45 l68 -23 -63 67
c-35 36 -65 67 -68 68 -3 0 -29 -9 -58 -21z"/>
<path d="M1740 2318 c0 -20 5 -23 45 -23 40 0 45 3 45 23 0 20 -5 22 -45 22
-40 0 -45 -2 -45 -22z"/>
<path d="M2210 2025 l0 -35 55 0 55 0 0 35 0 35 -55 0 -55 0 0 -35z"/>
<path d="M6793 743 c-13 -49 -9 -256 6 -282 12 -22 14 -22 29 -7 22 22 30 248
10 285 -19 35 -36 37 -45 4z"/>
<path d="M4470 1025 c-9 -11 -15 -55 -18 -126 l-5 -109 37 0 36 0 0 58 c0 68
-16 172 -28 184 -5 5 -15 2 -22 -7z"/>
<path d="M4758 1018 c-18 -31 -25 -496 -8 -550 13 -46 45 -52 60 -12 15 39 13
523 -3 553 -17 33 -33 36 -49 9z"/>
<path d="M3421 4808 c-1 -11 -9 -18 -21 -18 -19 0 -20 -7 -20 -235 l0 -235 45
0 45 0 0 235 c0 225 -1 235 -19 235 -11 0 -22 8 -24 18 -4 16 -5 16 -6 0z"/>
<path d="M27 4783 l-27 -4 0 -490 0 -489 30 0 30 0 0 495 c0 272 -1 494 -2
494 -2 -1 -15 -4 -31 -6z"/>
<path d="M3800 4564 c0 -209 1 -225 18 -222 58 11 88 235 50 370 -11 38 -41
78 -58 78 -6 0 -10 -88 -10 -226z"/>
<path d="M968 4368 c-16 -30 -16 -499 1 -540 13 -34 26 -35 43 -5 18 30 18
499 0 540 -14 33 -27 34 -44 5z"/>
<path d="M1131 4359 c-14 -40 -15 -497 -1 -533 12 -34 28 -33 42 2 17 40 17
509 0 540 -17 30 -28 28 -41 -9z"/>
<path d="M3800 4050 c0 -240 1 -250 19 -250 55 0 76 69 76 245 0 178 -25 255
-84 255 -8 0 -11 -80 -11 -250z"/>
<path d="M5103 994 c-15 -33 -18 -72 -18 -264 0 -170 3 -233 14 -258 17 -39
32 -37 44 7 13 52 4 528 -10 542 -10 10 -16 4 -30 -27z"/>
</g>
</svg>
