<svg width="1447" height="181" viewBox="0 0 1447 181" fill="none" xmlns="http://www.w3.org/2000/svg">
<path d="M130 94.5V94.9932V95.4825V95.968V96.4497V96.9276V97.4016V97.8719V98.3384V98.8012V99.2603V99.7156V100.167V100.615V101.059V101.5V101.937V102.37V102.8V103.226V103.649V104.068V104.483V104.895V105.304V105.708V106.11V106.508V106.902V107.293V107.681V108.065V108.446V108.823V109.197V109.568V109.935V110.299V110.66V111.017V111.371V111.722V112.07V112.414V112.755V113.093V113.428V113.76V114.088V114.413V114.736V115.055V115.371V115.683V115.993V116.3V116.604V116.904V117.202V117.497V117.788V118.077V118.363V118.646V118.926V119.203V119.477V119.748V120.017V120.282V120.545V120.805V121.062V121.317V121.568V121.817V122.063V122.307V122.547V122.785V123.021V123.254V123.484V123.711V123.936V124.158V124.378V124.595V124.809V125.021V125.231V125.438V125.642V125.844V126.043V126.24V126.435V126.627V126.817V127.004V127.189V127.372V127.553V127.731V127.906V128.08V128.251V128.42V128.586V128.751V128.913V129.073V129.23V129.386V129.539V129.691V129.84V129.987V130.132V130.275V130.415V130.554V130.691V130.825V130.958V131.089V131.217V131.344V131.469V131.592V131.712V131.831V131.949V132.064V132.177V132.289V132.398V132.506V132.612V132.717V132.819V132.92V133.019V133.116V133.212V133.306V133.398V133.489V133.578V133.665V133.751V133.835V133.917V133.998V134.078V134.155V134.232V134.307V134.38V134.452V134.522V134.591V134.658V134.724V134.789V134.852V134.914V134.975V135.034V135.092V135.148V135.203V135.257V135.31V135.361V135.412V135.461V135.508V135.555V135.6V135.645V135.688V135.73V135.77V135.81V135.849V135.886V135.923V135.958V135.993V136.026V136.058V136.09V136.12V136.15V136.178V136.206V136.233V136.259V136.284V136.308V136.331V136.353V136.375V136.396V136.416V136.435V136.454V136.471V136.489V136.505V136.521V136.535V136.55V136.563V136.576V136.589V136.601V136.612V136.622V136.633V136.642V136.651V136.66V136.667V136.675V136.682V136.689V136.695V136.7V136.706V136.711V136.715V136.719V136.723V136.727V136.73V136.733V136.735V136.738V136.74V136.742V136.743V136.744V136.746V136.747V136.747V136.748V136.749V136.749V136.749V136.75V136.75V136.75V136.75V136.75V136.751V136.751V136.751V136.752V136.753V136.753V136.754V136.756V136.757V136.758V136.76V136.762V136.765V136.767V136.77V136.773V136.777V136.781V136.785V136.789V136.794V136.8V136.805V136.811V136.818V136.825V136.833V136.84V136.849V136.858V136.867V136.878V136.888V136.899V136.911V136.924V136.937V136.95V136.965V136.979V136.995V137.011V137.029V137.046V137.065V137.084V137.104V137.125V137.147V137.169V137.192V137.216V137.241V137.267V137.294V137.322V137.35V137.38V137.41V137.442V137.474V137.507V137.542V137.577V137.614V137.651V137.69V137.73V137.77V137.812V137.855V137.9V137.945V137.992V138.039V138.088V138.139V138.19V138.243V138.297V138.352V138.408V138.466V138.525V138.586V138.648V138.711V138.776V138.842V138.909V138.978V139.048V139.12V139.193V139.268V139.345V139.422V139.502V139.583V139.665V139.749V139.835V139.922V140.011V140.102V140.194V140.288V140.384V140.481V140.58V140.681V140.783V140.888V140.994V141.102V141.211V141.323V141.436V141.551V141.669V141.788V141.908V142.031V142.156V142.283V142.411V142.542V142.675V142.809V142.946V143.085V143.225V143.368V143.513V143.66V143.809V143.961V144.114V144.27V144.427V144.587V144.749V144.914V145.08V145.249V145.42V145.594V145.769V145.947V146.128V146.311V146.496V146.683V146.873V147.065V147.26V147.457V147.656V147.858V148.062V148.269V148.479V148.691V148.905V149.122V149.342V149.564V149.789V150.016V150.246V150.479V150.715V150.953V151.193V151.437V151.683V151.932V152.183V152.438V152.695V152.955V153.218V153.483V153.752V154.023V154.297V154.574V154.854V155.137V155.423V155.712V156.003V156.298V156.596V156.896V157.2V157.507V157.817V158.129V158.445V158.764V159.087V159.412V159.74V160.072V160.407V160.745V161.086V161.43V161.778V162.129V162.483V162.84V163.201V163.565V163.932V164.303V164.677V165.054V165.435V165.819V166.207V166.598V166.992V167.39V167.792V168.196V168.605V169.017V169.432V169.851V170.274V170.7V171.13V171.563V172V172.441V172.885V173.333V173.784V174.24V174.699V175.162V175.628V176.098V176.572V177.05V177.495C94.5284 177.238 62.5206 167.893 39.3264 152.989C15.7895 137.864 1.5 117.15 1.5 94.5C1.5 71.8497 15.7895 51.1358 39.3264 36.0114C62.5206 21.1071 94.5284 11.762 130 11.5054V11.9497V12.4275V12.9016V13.3719V13.8384V14.3012V14.7603V15.2156V15.6673V16.1152V16.5595V17.0001V17.4371V17.8704V18.3002V18.7263V19.1489V19.5679V19.9833V20.3952V20.8036V21.2085V21.6099V22.0078V22.4023V22.7933V23.1809V23.565V23.9458V24.3232V24.6972V25.0679V25.4352V25.7992V26.1599V26.5173V26.8714V27.2222V27.5698V27.9142V28.2554V28.5933V28.9281V29.2596V29.5881V29.9134V30.2355V30.5546V30.8705V31.1834V31.4932V31.7999V32.1036V32.4043V32.702V32.9967V33.2884V33.5771V33.863V34.1458V34.4258V34.7028V34.977V35.2483V35.5167V35.7824V36.0451V36.3051V36.5623V36.8167V37.0683V37.3172V37.5633V37.8067V38.0474V38.2855V38.5208V38.7535V38.9836V39.211V39.4358V39.658V39.8776V40.0947V40.3092V40.5211V40.7306V40.9375V41.1419V41.3439V41.5434V41.7404V41.9351V42.1273V42.3171V42.5045V42.6895V42.8722V43.0525V43.2305V43.4062V43.5796V43.7508V43.9196V44.0862V44.2506V44.4127V44.5727V44.7304V44.886V45.0394V45.1907V45.3398V45.4868V45.6317V45.7746V45.9153V46.054V46.1907V46.3254V46.458V46.5886V46.7173V46.844V46.9688V47.0916V47.2125V47.3315V47.4486V47.5638V47.6772V47.7887V47.8984V48.0063V48.1124V48.2167V48.3192V48.42V48.519V48.6164V48.712V48.8059V48.8981V48.9887V49.0777V49.165V49.2507V49.3348V49.4173V49.4982V49.5776V49.6554V49.7317V49.8065V49.8798V49.9516V50.022V50.0909V50.1583V50.2244V50.289V50.3523V50.4142V50.4747V50.5339V50.5917V50.6482V50.7035V50.7574V50.8101V50.8615V50.9117V50.9606V51.0084V51.0549V51.1003V51.1445V51.1876V51.2295V51.2703V51.3101V51.3487V51.3862V51.4227V51.4582V51.4926V51.526V51.5584V51.5898V51.6203V51.6498V51.6784V51.706V51.7328V51.7587V51.7836V51.8077V51.831V51.8535V51.8751V51.8959V51.9159V51.9352V51.9537V51.9715V51.9885V52.0049V52.0205V52.0355V52.0498V52.0634V52.0764V52.0888V52.1006V52.1118V52.1224V52.1325V52.142V52.151V52.1595V52.1675V52.175V52.182V52.1886V52.1947V52.2004V52.2057V52.2107V52.2152V52.2194V52.2232V52.2267V52.2299V52.2327V52.2353V52.2376V52.2397V52.2415V52.2431V52.2445V52.2456V52.2466V52.2475V52.2482V52.2487V52.2491V52.2495V52.2497V52.2498V52.25V52.2502V52.2503V52.2505V52.2509V52.2513V52.2518V52.2525V52.2534V52.2544V52.2555V52.2569V52.2585V52.2603V52.2624V52.2647V52.2673V52.2701V52.2733V52.2768V52.2806V52.2848V52.2893V52.2943V52.2996V52.3053V52.3114V52.318V52.325V52.3325V52.3405V52.349V52.358V52.3675V52.3776V52.3882V52.3994V52.4112V52.4236V52.4366V52.4502V52.4645V52.4795V52.4951V52.5115V52.5285V52.5463V52.5648V52.5841V52.6041V52.6249V52.6465V52.669V52.6923V52.7164V52.7413V52.7672V52.794V52.8216V52.8502V52.8797V52.9102V52.9416V52.974V53.0074V53.0418V53.0773V53.1138V53.1513V53.1899V53.2297V53.2705V53.3124V53.3555V53.3997V53.4451V53.4916V53.5394V53.5883V53.6385V53.6899V53.7426V53.7965V53.8518V53.9083V53.9661V54.0253V54.0858V54.1477V54.211V54.2756V54.3417V54.4091V54.478V54.5484V54.6202V54.6935V54.7683V54.8446V54.9224V55.0018V55.0827V55.1652V55.2493V55.335V55.4223V55.5113V55.6019V55.6941V55.788V55.8836V55.981V56.08V56.1808V56.2833V56.3876V56.4937V56.6016V56.7113V56.8228V56.9362V57.0514V57.1685V57.2875V57.4084V57.5312V57.656V57.7827V57.9114V58.042V58.1746V58.3093V58.446V58.5847V58.7254V58.8683V59.0132V59.1602V59.3093V59.4606V59.614V59.7696V59.9273V60.0873V60.2494V60.4138V60.5804V60.7492V60.9204V61.0938V61.2695V61.4475V61.6278V61.8105V61.9955V62.1829V62.3727V62.5649V62.7596V62.9566V63.1561V63.3581V63.5625V63.7694V63.9789V64.1908V64.4053V64.6224V64.842V65.0642V65.289V65.5164V65.7465V65.9792V66.2145V66.4526V66.6933V66.9367V67.1828V67.4317V67.6833V67.9377V68.1949V68.4549V68.7177V68.9833V69.2517V69.523V69.7972V70.0742V70.3542V70.637V70.9229V71.2116V71.5033V71.798V72.0957V72.3964V72.7001V73.0068V73.3166V73.6295V73.9454V74.2645V74.5866V74.9119V75.2404V75.5719V75.9067V76.2447V76.5858V76.9302V77.2778V77.6286V77.9827V78.3401V78.7008V79.0648V79.4321V79.8028V80.1768V80.5542V80.935V81.3191V81.7067V82.0977V82.4922V82.8901V83.2915V83.6964V84.1048V84.5167V84.9321V85.3511V85.7737V86.1998V86.6296V87.0629V87.4999V87.9405V88.3848V88.8327V89.2844V89.7397V90.1988V90.6616V91.1281V91.5984V92.0724V92.5503V93.032V93.5175V94.0068V94.5Z" fill="#8396C2" stroke="#8396C2" stroke-width="3"/>
<path d="M1316.77 90.5V90.9932V91.4825V91.968V92.4497V92.9276V93.4016V93.8719V94.3384V94.8012V95.2603V95.7156V96.1673V96.6152V97.0595V97.5001V97.9371V98.3704V98.8002V99.2263V99.6489V100.068V100.483V100.895V101.304V101.708V102.11V102.508V102.902V103.293V103.681V104.065V104.446V104.823V105.197V105.568V105.935V106.299V106.66V107.017V107.371V107.722V108.07V108.414V108.755V109.093V109.428V109.76V110.088V110.413V110.736V111.055V111.371V111.683V111.993V112.3V112.604V112.904V113.202V113.497V113.788V114.077V114.363V114.646V114.926V115.203V115.477V115.748V116.017V116.282V116.545V116.805V117.062V117.317V117.568V117.817V118.063V118.307V118.547V118.785V119.021V119.254V119.484V119.711V119.936V120.158V120.378V120.595V120.809V121.021V121.231V121.438V121.642V121.844V122.043V122.24V122.435V122.627V122.817V123.004V123.189V123.372V123.553V123.731V123.906V124.08V124.251V124.42V124.586V124.751V124.913V125.073V125.23V125.386V125.539V125.691V125.84V125.987V126.132V126.275V126.415V126.554V126.691V126.825V126.958V127.089V127.217V127.344V127.469V127.592V127.712V127.831V127.949V128.064V128.177V128.289V128.398V128.506V128.612V128.717V128.819V128.92V129.019V129.116V129.212V129.306V129.398V129.489V129.578V129.665V129.751V129.835V129.917V129.998V130.078V130.155V130.232V130.307V130.38V130.452V130.522V130.591V130.658V130.724V130.789V130.852V130.914V130.975V131.034V131.092V131.148V131.203V131.257V131.31V131.361V131.412V131.461V131.508V131.555V131.6V131.645V131.688V131.73V131.77V131.81V131.849V131.886V131.923V131.958V131.993V132.026V132.058V132.09V132.12V132.15V132.178V132.206V132.233V132.259V132.284V132.308V132.331V132.353V132.375V132.396V132.416V132.435V132.454V132.471V132.489V132.505V132.521V132.535V132.55V132.563V132.576V132.589V132.601V132.612V132.622V132.633V132.642V132.651V132.66V132.667V132.675V132.682V132.689V132.695V132.7V132.706V132.711V132.715V132.719V132.723V132.727V132.73V132.733V132.735V132.738V132.74V132.742V132.743V132.744V132.746V132.747V132.747V132.748V132.749V132.749V132.749V132.75V132.75V132.75V132.75V132.75V132.751V132.751V132.751V132.752V132.753V132.753V132.754V132.756V132.757V132.758V132.76V132.762V132.765V132.767V132.77V132.773V132.777V132.781V132.785V132.789V132.794V132.8V132.805V132.811V132.818V132.825V132.833V132.84V132.849V132.858V132.867V132.878V132.888V132.899V132.911V132.924V132.937V132.95V132.965V132.979V132.995V133.011V133.029V133.046V133.065V133.084V133.104V133.125V133.147V133.169V133.192V133.216V133.241V133.267V133.294V133.322V133.35V133.38V133.41V133.442V133.474V133.507V133.542V133.577V133.614V133.651V133.69V133.73V133.77V133.812V133.855V133.9V133.945V133.992V134.039V134.088V134.139V134.19V134.243V134.297V134.352V134.408V134.466V134.525V134.586V134.648V134.711V134.776V134.842V134.909V134.978V135.048V135.12V135.193V135.268V135.345V135.422V135.502V135.583V135.665V135.749V135.835V135.922V136.011V136.102V136.194V136.288V136.384V136.481V136.58V136.681V136.783V136.888V136.994V137.102V137.211V137.323V137.436V137.551V137.669V137.788V137.908V138.031V138.156V138.283V138.411V138.542V138.675V138.809V138.946V139.085V139.225V139.368V139.513V139.66V139.809V139.961V140.114V140.27V140.427V140.587V140.749V140.914V141.08V141.249V141.42V141.594V141.769V141.947V142.128V142.311V142.496V142.683V142.873V143.065V143.26V143.457V143.656V143.858V144.062V144.269V144.479V144.691V144.905V145.122V145.342V145.564V145.789V146.016V146.246V146.479V146.715V146.953V147.193V147.437V147.683V147.932V148.183V148.438V148.695V148.955V149.218V149.483V149.752V150.023V150.297V150.574V150.854V151.137V151.423V151.712V152.003V152.298V152.596V152.896V153.2V153.507V153.817V154.129V154.445V154.764V155.087V155.412V155.74V156.072V156.407V156.745V157.086V157.43V157.778V158.129V158.483V158.84V159.201V159.565V159.932V160.303V160.677V161.054V161.435V161.819V162.207V162.598V162.992V163.39V163.792V164.196V164.605V165.017V165.432V165.851V166.274V166.7V167.13V167.563V168V168.441V168.885V169.333V169.784V170.24V170.699V171.162V171.628V172.098V172.572V173.05V173.495C1352.1 173.237 1383.98 163.893 1407.09 148.99C1430.53 133.867 1444.77 113.153 1444.77 90.5C1444.77 67.847 1430.53 47.1332 1407.09 32.01C1383.98 17.1074 1352.1 7.763 1316.77 7.50546V7.94969V8.42755V8.90162V9.37192V9.83845V10.3012V10.7603V11.2156V11.6673V12.1152V12.5595V13.0001V13.4371V13.8704V14.3002V14.7263V15.1489V15.5679V15.9833V16.3952V16.8036V17.2085V17.6099V18.0078V18.4023V18.7933V19.1809V19.565V19.9458V20.3232V20.6972V21.0679V21.4352V21.7992V22.1599V22.5173V22.8714V23.2222V23.5698V23.9142V24.2554V24.5933V24.9281V25.2596V25.5881V25.9134V26.2355V26.5546V26.8705V27.1834V27.4932V27.7999V28.1036V28.4043V28.702V28.9967V29.2884V29.5771V29.863V30.1458V30.4258V30.7028V30.977V31.2483V31.5167V31.7824V32.0451V32.3051V32.5623V32.8167V33.0683V33.3172V33.5633V33.8067V34.0474V34.2855V34.5208V34.7535V34.9836V35.211V35.4358V35.658V35.8776V36.0947V36.3092V36.5211V36.7306V36.9375V37.1419V37.3439V37.5434V37.7404V37.9351V38.1273V38.3171V38.5045V38.6895V38.8722V39.0525V39.2305V39.4062V39.5796V39.7508V39.9196V40.0862V40.2506V40.4127V40.5727V40.7304V40.886V41.0394V41.1907V41.3398V41.4868V41.6317V41.7746V41.9153V42.054V42.1907V42.3254V42.458V42.5886V42.7173V42.844V42.9688V43.0916V43.2125V43.3315V43.4486V43.5638V43.6772V43.7887V43.8984V44.0063V44.1124V44.2167V44.3192V44.42V44.519V44.6164V44.712V44.8059V44.8981V44.9887V45.0777V45.165V45.2507V45.3348V45.4173V45.4982V45.5776V45.6554V45.7317V45.8065V45.8798V45.9516V46.022V46.0909V46.1583V46.2244V46.289V46.3523V46.4142V46.4747V46.5339V46.5917V46.6482V46.7035V46.7574V46.8101V46.8615V46.9117V46.9606V47.0084V47.0549V47.1003V47.1445V47.1876V47.2295V47.2703V47.3101V47.3487V47.3862V47.4227V47.4582V47.4926V47.526V47.5584V47.5898V47.6203V47.6498V47.6784V47.706V47.7328V47.7587V47.7836V47.8077V47.831V47.8535V47.8751V47.8959V47.9159V47.9352V47.9537V47.9715V47.9885V48.0049V48.0205V48.0355V48.0498V48.0634V48.0764V48.0888V48.1006V48.1118V48.1224V48.1325V48.142V48.151V48.1595V48.1675V48.175V48.182V48.1886V48.1947V48.2004V48.2057V48.2107V48.2152V48.2194V48.2232V48.2267V48.2299V48.2327V48.2353V48.2376V48.2397V48.2415V48.2431V48.2445V48.2456V48.2466V48.2475V48.2482V48.2487V48.2491V48.2495V48.2497V48.2498V48.25V48.2502V48.2503V48.2505V48.2509V48.2513V48.2518V48.2525V48.2534V48.2544V48.2555V48.2569V48.2585V48.2603V48.2624V48.2647V48.2673V48.2701V48.2733V48.2768V48.2806V48.2848V48.2893V48.2943V48.2996V48.3053V48.3114V48.318V48.325V48.3325V48.3405V48.349V48.358V48.3675V48.3776V48.3882V48.3994V48.4112V48.4236V48.4366V48.4502V48.4645V48.4795V48.4951V48.5115V48.5285V48.5463V48.5648V48.5841V48.6041V48.6249V48.6465V48.669V48.6923V48.7164V48.7413V48.7672V48.794V48.8216V48.8502V48.8797V48.9102V48.9416V48.974V49.0074V49.0418V49.0773V49.1138V49.1513V49.1899V49.2297V49.2705V49.3124V49.3555V49.3997V49.4451V49.4916V49.5394V49.5883V49.6385V49.6899V49.7426V49.7965V49.8518V49.9083V49.9661V50.0253V50.0858V50.1477V50.211V50.2756V50.3417V50.4091V50.478V50.5484V50.6202V50.6935V50.7683V50.8446V50.9224V51.0018V51.0827V51.1652V51.2493V51.335V51.4223V51.5113V51.6019V51.6941V51.788V51.8836V51.981V52.08V52.1808V52.2833V52.3876V52.4937V52.6016V52.7113V52.8228V52.9362V53.0514V53.1685V53.2875V53.4084V53.5312V53.656V53.7827V53.9114V54.042V54.1746V54.3093V54.446V54.5847V54.7254V54.8683V55.0132V55.1602V55.3093V55.4606V55.614V55.7696V55.9273V56.0873V56.2494V56.4138V56.5804V56.7492V56.9204V57.0938V57.2695V57.4475V57.6278V57.8105V57.9955V58.1829V58.3727V58.5649V58.7596V58.9566V59.1561V59.3581V59.5625V59.7694V59.9789V60.1908V60.4053V60.6224V60.842V61.0642V61.289V61.5164V61.7465V61.9792V62.2145V62.4526V62.6933V62.9367V63.1828V63.4317V63.6833V63.9377V64.1949V64.4549V64.7177V64.9833V65.2517V65.523V65.7972V66.0742V66.3542V66.637V66.9229V67.2116V67.5033V67.798V68.0957V68.3964V68.7001V69.0068V69.3166V69.6295V69.9454V70.2645V70.5866V70.9119V71.2404V71.5719V71.9067V72.2447V72.5858V72.9302V73.2778V73.6286V73.9827V74.3401V74.7008V75.0648V75.4321V75.8028V76.1768V76.5542V76.935V77.3191V77.7067V78.0977V78.4922V78.8901V79.2915V79.6964V80.1048V80.5167V80.9321V81.3511V81.7737V82.1998V82.6296V83.0629V83.4999V83.9405V84.3848V84.8327V85.2844V85.7397V86.1988V86.6616V87.1281V87.5984V88.0724V88.5503V89.032V89.5175V90.0068V90.5Z" stroke="#8396C2" stroke-width="3"/>
<path d="M1324.77 59.5C1324.77 58.9477 1325.22 58.5 1325.77 58.5H1336.27L1348.27 57.5L1361.16 55.0204C1361.23 55.0068 1361.3 54.9858 1361.37 54.9575L1370.94 50.8556C1371.41 50.6536 1371.96 50.8408 1372.21 51.2891L1374.27 55L1376.77 61L1380.73 70.407C1380.76 70.4688 1380.78 70.5331 1380.79 70.5989L1383.03 81.8039C1383.15 82.4227 1382.68 83 1382.05 83H1325.77C1325.22 83 1324.77 82.5523 1324.77 82V59.5Z" fill="#8396C2"/>
<path d="M1325.27 118.385C1325.27 118.937 1325.72 119.385 1326.27 119.385H1336.67L1348.57 120.462L1361.34 123.13C1361.42 123.146 1361.49 123.17 1361.56 123.203L1370.99 127.593C1371.48 127.82 1372.06 127.621 1372.31 127.142L1374.35 123.154L1376.82 116.692L1380.76 106.549C1380.78 106.491 1380.8 106.431 1380.81 106.369L1383.05 94.1811C1383.16 93.5666 1382.69 93 1382.07 93H1326.27C1325.72 93 1325.27 93.4477 1325.27 94V118.385Z" fill="#8396C2"/>
<path d="M120 63.8769C120 63.3246 119.552 62.8769 119 62.8769H108.598L96.7009 61.8923L83.9173 59.4509C83.8473 59.4375 83.7789 59.4167 83.7133 59.3888L74.2278 55.3516C73.7579 55.1516 73.2127 55.3378 72.9634 55.7835L70.9231 59.4308L68.4444 65.3385L64.5182 74.5989C64.4919 74.661 64.4719 74.7256 64.4586 74.7918L62.2411 85.8026C62.1165 86.4217 62.5899 87 63.2215 87H119C119.552 87 120 86.5523 120 86V63.8769Z" fill="#E5E5E5"/>
<path d="M120 121.123C120 121.675 119.552 122.123 119 122.123H108.598L96.7009 123.108L83.9173 125.549C83.8473 125.562 83.7789 125.583 83.7133 125.611L74.2278 129.648C73.7579 129.848 73.2127 129.662 72.9634 129.217L70.9231 125.569L68.4444 119.662L64.5182 110.401C64.4919 110.339 64.4719 110.274 64.4586 110.208L62.2411 99.1974C62.1165 98.5783 62.5899 98 63.2215 98H119C119.552 98 120 98.4477 120 99V121.123Z" fill="#E5E5E5"/>
<path d="M1325.75 20.0707C1325.76 19.4441 1326.33 18.9748 1326.94 19.0941L1336.66 20.9796C1336.73 20.9932 1336.8 21.0141 1336.87 21.0422L1347.17 25.4557C1347.23 25.4852 1347.3 25.5222 1347.36 25.5661L1358.18 33.4353C1358.24 33.4783 1358.29 33.5277 1358.34 33.5825L1364.7 40.793C1365.19 41.3489 1364.93 42.2266 1364.21 42.42L1347.36 46.9753C1347.3 46.9917 1347.24 47.0024 1347.17 47.0071L1326.69 48.5516C1326.1 48.5955 1325.61 48.1332 1325.61 47.5493L1325.75 20.0707Z" fill="#8396C2"/>
<path d="M119.32 23.4612C119.312 22.8367 118.74 22.3724 118.127 22.4931L108.37 24.4152C108.3 24.4289 108.232 24.4501 108.166 24.4784L97.8586 28.9338C97.7899 28.9636 97.7246 29.0009 97.6642 29.0452L86.8601 36.9652C86.8009 37.0086 86.7467 37.0584 86.6984 37.1137L80.3642 44.3616C79.8766 44.9196 80.144 45.7955 80.8601 45.986L97.8334 50.5014C97.8941 50.5175 97.9561 50.5279 98.0186 50.5324L118.607 52.0162C119.191 52.0583 119.686 51.5915 119.678 51.0058L119.32 23.4612Z" fill="#E5E5E5"/>
<path d="M119.382 162.613C119.376 163.237 118.805 163.704 118.192 163.585L108.427 161.697C108.357 161.683 108.289 161.662 108.224 161.634L97.8998 157.214C97.8309 157.185 97.7655 157.148 97.705 157.104L86.8724 149.221C86.8131 149.178 86.7587 149.128 86.7102 149.073L80.3499 141.847C79.8604 141.29 80.1247 140.414 80.8401 140.22L97.7977 135.646C97.8583 135.629 97.9202 135.619 97.9828 135.614L118.566 134.058C119.15 134.014 119.647 134.479 119.641 135.065L119.382 162.613Z" fill="#E5E5E5"/>
<path d="M1326.18 158.519C1326.19 159.144 1326.77 159.605 1327.38 159.482L1337.13 157.509C1337.2 157.495 1337.27 157.474 1337.33 157.445L1347.62 152.937C1347.69 152.906 1347.75 152.869 1347.81 152.824L1358.58 144.848C1358.63 144.805 1358.69 144.755 1358.74 144.699L1365.03 137.418C1365.52 136.858 1365.25 135.983 1364.53 135.796L1347.53 131.367C1347.47 131.352 1347.41 131.342 1347.35 131.337L1326.75 129.959C1326.17 129.92 1325.67 130.389 1325.68 130.975L1326.18 158.519Z" fill="#8396C2"/>
<path d="M1383.04 49.7464C1382.61 48.7693 1383.02 47.6235 1383.98 47.1453L1399.23 39.5191C1399.87 39.1981 1400.64 39.2457 1401.23 39.6438L1413.55 47.8571C1413.7 47.952 1413.83 48.0647 1413.94 48.1925L1421.77 57L1430.53 68.6769C1430.69 68.8901 1430.8 69.1332 1430.87 69.3918L1433.65 80.5149C1433.96 81.7772 1433.01 83 1431.71 83H1394.95C1393.98 83 1393.15 82.3033 1392.98 81.3476L1390.31 66.241C1390.28 66.0809 1390.24 65.9249 1390.17 65.7763L1383.04 49.7464Z" fill="#8396C2"/>
<path d="M1383.04 127.254C1382.61 128.231 1383.02 129.377 1383.98 129.855L1399.23 137.481C1399.87 137.802 1400.64 137.754 1401.23 137.356L1413.55 129.143C1413.7 129.048 1413.83 128.935 1413.94 128.807L1421.77 120L1430.53 108.323C1430.69 108.11 1430.8 107.867 1430.87 107.608L1433.65 96.4851C1433.96 95.2228 1433.01 94 1431.71 94H1394.95C1393.98 94 1393.15 94.6967 1392.98 95.6524L1390.31 110.759C1390.28 110.919 1390.24 111.075 1390.17 111.224L1383.04 127.254Z" fill="#8396C2"/>
<path d="M61.2238 53.7464C61.6581 52.7693 61.247 51.6235 60.2906 51.1453L45.0381 43.5191C44.3962 43.1981 43.6315 43.2457 43.0343 43.6438L30.7143 51.8571C30.572 51.952 30.4425 52.0647 30.3289 52.1925L22.5 61L13.7423 72.6769C13.5824 72.8901 13.4667 73.1332 13.402 73.3918L10.6213 84.5149C10.3057 85.7772 11.2604 87 12.5616 87H49.322C50.2925 87 51.1229 86.3033 51.2916 85.3476L53.9575 70.241C53.9857 70.0809 54.0334 69.9249 54.0994 69.7763L61.2238 53.7464Z" fill="#E5E5E5"/>
<path d="M61.2238 131.254C61.6581 132.231 61.247 133.377 60.2906 133.855L45.0381 141.481C44.3962 141.802 43.6315 141.754 43.0343 141.356L30.7143 133.143C30.572 133.048 30.4425 132.935 30.3289 132.807L22.5 124L13.7423 112.323C13.5824 112.11 13.4667 111.867 13.402 111.608L10.6213 100.485C10.3057 99.2228 11.2604 98 12.5616 98H49.322C50.2925 98 51.1229 98.6967 51.2916 99.6524L53.9575 114.759C53.9857 114.919 54.0334 115.075 54.0994 115.224L61.2238 131.254Z" fill="#E5E5E5"/>
<path d="M1363.27 23.5L1378.5 28L1391.27 33.5L1378.5 40L1373.27 33.5L1363.27 23.5Z" fill="#8396C2"/>
<path d="M1361.37 155.51L1376.52 150.747L1389.19 145.028L1376.32 138.752L1371.19 145.34L1361.37 155.51Z" fill="#8396C2"/>
<path d="M82.75 27.6296L66.5621 32.1296L53 37.6296L66.5621 44.1296L72.125 37.6296L82.75 27.6296Z" fill="#E5E5E5"/>
<path d="M84.7724 159.639L68.6705 154.877L55.2116 149.158L68.8869 142.881L74.3309 149.47L84.7724 159.639Z" fill="#E5E5E5"/>
<line x1="1316.77" y1="9" x2="1316.77" y2="171" stroke="#E5E5E5" stroke-width="3"/>
<path d="M1193.39 178.429C1193.28 178.429 1193.16 178.446 1193.05 178.428C1193 178.419 1192.89 178.414 1192.85 178.384C1192.74 178.324 1192.55 178.356 1192.44 178.356C1192.35 178.356 1192.26 178.397 1192.18 178.41C1192.11 178.419 1192.03 178.481 1191.98 178.483C1191.9 178.486 1191.85 178.519 1191.77 178.519C1191.71 178.519 1191.69 178.465 1191.63 178.465C1191.18 178.465 1190.73 178.465 1190.29 178.465" stroke="#E5E5E5"/>
<path d="M1317.8 170.758C1317.89 171.141 1317.83 171.594 1317.83 171.991" stroke="#E5E5E5"/>
<path d="M1317.29 170.903V171.991" stroke="#E5E5E5"/>
<path d="M219.8 35.008L221.528 75.472H209.144L204.248 45.664L177.752 44.224V131.776L201.368 133.504V142H140.888V133.504L156.584 131.776V45.952L141.176 43.792V35.008H219.8ZM265.268 143.584C252.596 143.584 243.14 139.888 236.9 132.496C230.756 125.008 227.684 114.832 227.684 101.968C227.684 93.328 229.268 85.84 232.436 79.504C235.7 73.168 240.26 68.32 246.116 64.96C251.972 61.6 258.74 59.92 266.42 59.92C276.02 59.92 283.412 62.464 288.596 67.552C293.78 72.544 296.468 79.696 296.66 89.008C296.66 95.344 296.276 100.048 295.508 103.12H248.708C249.092 111.856 251.156 118.672 254.9 123.568C258.644 128.368 263.972 130.768 270.884 130.768C274.628 130.768 278.468 130.144 282.404 128.896C286.436 127.648 289.604 126.16 291.908 124.432L295.508 132.352C292.916 135.136 288.692 137.728 282.836 140.128C277.076 142.432 271.22 143.584 265.268 143.584ZM276.5 94.48C276.692 91.792 276.788 89.728 276.788 88.288C276.788 75.52 272.516 69.136 263.972 69.136C259.268 69.136 255.62 71.008 253.028 74.752C250.436 78.496 248.996 85.072 248.708 94.48H276.5ZM308.152 102.112C308.152 93.088 309.928 85.408 313.48 79.072C317.128 72.736 321.976 67.984 328.024 64.816C334.072 61.552 340.648 59.92 347.752 59.92C359.848 59.92 369.16 63.664 375.688 71.152C382.312 78.544 385.624 88.624 385.624 101.392C385.624 110.512 383.8 118.288 380.152 124.72C376.6 131.056 371.8 135.808 365.752 138.976C359.8 142.048 353.224 143.584 346.024 143.584C334.024 143.584 324.712 139.888 318.088 132.496C311.464 125.008 308.152 114.88 308.152 102.112ZM347.176 134.224C358.024 134.224 363.448 123.76 363.448 102.832C363.448 91.888 362.152 83.584 359.56 77.92C356.968 72.16 352.744 69.28 346.888 69.28C335.752 69.28 330.184 79.744 330.184 100.672C330.184 111.616 331.528 119.968 334.216 125.728C337 131.392 341.32 134.224 347.176 134.224ZM448.106 136.24C443.402 141.232 436.922 143.728 428.666 143.728C422.81 143.728 417.53 142.336 412.826 139.552C408.218 136.768 404.522 132.4 401.738 126.448C398.954 120.496 397.562 113.008 397.562 103.984C397.562 95.44 399.05 87.856 402.026 81.232C405.098 74.608 409.562 69.424 415.418 65.68C421.274 61.936 428.234 60.064 436.298 60.064C438.314 60.064 440.426 60.352 442.634 60.928C444.842 61.408 446.666 61.984 448.106 62.656L447.674 51.136V36.448L436.874 34.72V27.088L462.938 23.92L467.258 26.512V51.136L466.97 67.408C471.866 62.512 478.298 60.064 486.266 60.064C492.122 60.064 497.402 61.456 502.106 64.24C506.81 67.024 510.554 71.392 513.338 77.344C516.122 83.296 517.514 90.784 517.514 99.808C517.514 108.352 515.978 115.936 512.906 122.56C509.834 129.184 505.37 134.368 499.514 138.112C493.754 141.856 486.842 143.728 478.778 143.728C476.57 143.728 474.41 143.488 472.298 143.008C470.282 142.528 468.65 141.904 467.402 141.136L467.69 150.352V166.768L479.642 168.64V176.992H436.154V168.64L447.674 166.768V150.352L448.106 136.24ZM447.674 73.024C447.002 72.16 445.802 71.296 444.074 70.432C442.346 69.568 440.33 69.136 438.026 69.136C432.458 69.136 427.85 71.92 424.202 77.488C420.65 82.96 418.874 91.36 418.874 102.688C418.874 112.48 420.506 119.92 423.77 125.008C427.034 130.096 431.258 132.64 436.442 132.64C438.938 132.64 441.146 132.304 443.066 131.632C444.986 130.96 446.522 130.096 447.674 129.04V73.024ZM467.258 130.48C467.93 131.344 469.178 132.208 471.002 133.072C472.826 133.936 474.842 134.368 477.05 134.368C482.618 134.368 487.178 131.68 490.73 126.304C494.378 120.928 496.202 112.576 496.202 101.248C496.202 91.456 494.522 83.968 491.162 78.784C487.898 73.504 483.674 70.864 478.49 70.864C475.994 70.864 473.786 71.2 471.866 71.872C469.946 72.448 468.41 73.264 467.258 74.32V130.48ZM570.539 61.936V70.432L559.451 72.304V115.792L567.515 105.136L595.451 75.328V72.304L585.803 70.432V61.936H625.691V70.432L615.899 72.304V132.064L626.123 133.36V142H584.651V133.36L595.451 132.064V87.856L587.099 99.808L559.451 129.04V132.352L568.955 133.36V142H529.067V133.36L539.147 132.064V72.304L529.355 70.432V61.936H570.539ZM639.2 64.24C642.176 64.24 646.208 63.712 651.296 62.656C654.56 61.888 657.632 61.312 660.512 60.928C663.488 60.544 666.896 60.352 670.736 60.352C681.776 60.352 689.936 62.032 695.216 65.392C700.592 68.752 703.28 73.552 703.28 79.792C703.28 83.92 701.792 87.664 698.816 91.024C695.936 94.384 691.952 97.024 686.864 98.944C693.584 99.616 698.72 101.632 702.272 104.992C705.824 108.352 707.6 112.672 707.6 117.952C707.6 125.92 704.528 132.112 698.384 136.528C692.24 140.944 683.024 143.152 670.736 143.152C663.44 143.152 657.296 142.624 652.304 141.568C647.312 140.512 642.56 139.264 638.048 137.824L639.488 118.96H651.44L654.032 130.192C655.184 131.536 657.008 132.592 659.504 133.36C662.096 134.032 664.928 134.368 668 134.368C673.76 134.368 677.984 132.976 680.672 130.192C683.36 127.312 684.704 123.712 684.704 119.392C684.704 109.888 679.76 105.184 669.872 105.28C668.72 105.376 667.28 105.568 665.552 105.856C663.824 106.144 662.384 106.432 661.232 106.72L661.376 96.064L667.424 95.2C671.936 94.528 675.488 92.896 678.08 90.304C680.672 87.712 681.968 84.352 681.968 80.224C681.968 76.384 680.864 73.6 678.656 71.872C676.544 70.048 673.04 69.136 668.144 69.136C664.592 69.136 661.568 69.712 659.072 70.864C656.576 72.016 654.896 73.312 654.032 74.752L652.16 86.416H639.2V64.24ZM758.836 61.936V70.432L747.748 72.304V115.792L755.812 105.136L783.748 75.328V72.304L774.1 70.432V61.936H813.988V70.432L804.196 72.304V132.064L814.42 133.36V142H772.948V133.36L783.748 132.064V87.856L775.396 99.808L747.748 129.04V132.352L757.252 133.36V142H717.364V133.36L727.444 132.064V72.304L717.652 70.432V61.936H758.836ZM882.937 97.36C886.777 98.992 890.137 101.728 893.017 105.568C895.897 109.312 899.017 114.16 902.377 120.112C904.393 123.76 906.073 126.544 907.417 128.464C908.761 130.288 910.057 131.44 911.305 131.92L917.497 133.216V142H896.617C893.929 142 891.529 140.512 889.417 137.536C887.305 134.464 884.761 129.856 881.785 123.712C878.809 117.376 876.169 112.576 873.865 109.312C871.561 106.048 868.921 104.416 865.945 104.416H856.873V132.064L868.681 133.36V142H826.489V133.36L836.569 132.064V72.304L826.777 70.432V61.936H866.665V70.432L856.873 72.304V95.92H870.985L886.969 72.304L876.313 70.432V61.936H913.465V70.432L902.377 72.304L882.937 97.36ZM922.084 119.536C922.084 110.8 926.452 104.224 935.188 99.808C944.02 95.392 955.396 93.136 969.316 93.04V89.728C969.316 85.792 968.884 82.72 968.02 80.512C967.252 78.304 965.764 76.672 963.556 75.616C961.444 74.464 958.324 73.888 954.195 73.888C949.492 73.888 945.268 74.512 941.524 75.76C937.78 76.912 933.892 78.448 929.86 80.368L925.396 71.152C926.836 69.904 929.236 68.416 932.596 66.688C936.052 64.96 940.132 63.472 944.836 62.224C949.54 60.88 954.388 60.208 959.38 60.208C966.772 60.208 972.532 61.168 976.66 63.088C980.884 65.008 983.908 68.08 985.732 72.304C987.556 76.528 988.468 82.192 988.468 89.296V133.36H996.244V141.424C994.324 141.904 991.588 142.384 988.036 142.864C984.484 143.344 981.364 143.584 978.676 143.584C975.412 143.584 973.204 143.104 972.052 142.144C970.996 141.184 970.468 139.216 970.468 136.24V132.352C967.876 135.232 964.516 137.824 960.388 140.128C956.26 142.432 951.604 143.584 946.42 143.584C942.004 143.584 937.924 142.672 934.18 140.848C930.532 138.928 927.604 136.192 925.396 132.64C923.188 128.992 922.084 124.624 922.084 119.536ZM955.636 131.632C957.652 131.632 959.956 131.056 962.548 129.904C965.14 128.656 967.396 127.168 969.316 125.44V101.824C960.676 101.824 954.196 103.312 949.876 106.288C945.652 109.168 943.54 112.912 943.54 117.52C943.54 122.128 944.596 125.632 946.708 128.032C948.916 130.432 951.892 131.632 955.636 131.632ZM1073.49 102.688H1014.88V89.152H1073.49V102.688ZM1106.73 45.808L1096.07 43.936V35.008H1139.85V43.936L1127.75 45.808V81.952H1171.53V45.808L1160.44 43.936V35.008H1203.64V43.936L1192.7 45.808V131.92L1203.64 133.36V142H1160.3V133.36L1171.53 131.92V92.896H1127.75V131.92L1139.85 133.36V142H1095.79V133.36L1106.73 131.92V45.808ZM1226.82 45.808L1215.59 43.936V35.008H1237.04C1240.31 35.008 1244.53 34.816 1249.72 34.432C1250.96 34.336 1252.45 34.24 1254.18 34.144C1255.91 34.048 1257.92 34 1260.23 34C1274.72 34 1284.85 36.064 1290.61 40.192C1296.47 44.224 1299.4 50.272 1299.4 58.336C1299.4 65.44 1297.24 71.392 1292.92 76.192C1288.69 80.896 1283.12 83.776 1276.21 84.832C1285.72 84.736 1293.16 86.896 1298.53 91.312C1304 95.728 1306.74 101.872 1306.74 109.744C1306.74 119.728 1303.24 127.744 1296.23 133.792C1289.22 139.84 1277.51 142.864 1261.09 142.864C1256.77 142.864 1252.79 142.72 1249.14 142.432C1248.18 142.432 1246.55 142.336 1244.24 142.144C1241.94 142.048 1239.59 142 1237.19 142H1215.44V133.36L1226.82 131.92V45.808ZM1247.7 81.664C1248.76 81.76 1250.92 81.808 1254.18 81.808H1260.95C1266.8 81.808 1271.17 79.984 1274.05 76.336C1276.93 72.688 1278.37 67.552 1278.37 60.928C1278.37 54.592 1276.88 49.984 1273.91 47.104C1270.93 44.224 1265.99 42.784 1259.08 42.784C1257.25 42.784 1253.46 42.976 1247.7 43.36V81.664ZM1247.7 132.496C1249.91 133.36 1254.13 133.792 1260.37 133.792C1268.53 133.792 1274.44 131.872 1278.08 128.032C1281.73 124.192 1283.56 118.624 1283.56 111.328C1283.56 104.32 1281.88 99.328 1278.52 96.352C1275.25 93.28 1270.02 91.744 1262.82 91.744C1254.76 91.744 1249.72 91.84 1247.7 92.032V132.496Z" fill="#8396C2"/>
</svg>
